# xmcd
#
# Track frame offsets:
#	150
#	12168
#	26071
#	40354
#	54183
#	68607
#	83020
#	97233
#	111452
#	125527
#	139624
#	153784
#	167311
#	180650
#	196103
#	211328
#	225367
#	240601
#	252741
#	265727
#	279288
#	292594
#	305172
#	320280
#	333402
#
# Disc length: 4616 seconds
#
# Revision: 1
# Processed by: cddbd v1.5.2PL0 Copyright (c) Steve Scherf et al.
# Submitted via: audiograbber 1.83.01
#
DISCID=50120619
DTITLE=Ma Rainey - Ma Rainey - Mother of the Blues - CD 2
DYEAR=1900
DGENRE=Blues
TTITLE0=Shave 'em Dry Blues
TTITLE1=Farewell, Daddy Blues
TTITLE2=Booze and Blues
TTITLE3=Toad Frog Blues
TTITLE4=Jealous Hearted Blues
TTITLE5=See See Rider Blues (take 1)
TTITLE6=See See Rider Blues (take 2)
TTITLE7=Jelly Bean Blues
TTITLE8=Countin' the Blues (take 1)
TTITLE9=Countin' the Blues (take 2)
TTITLE10=Cell Bound Blues
TTITLE11=Army Camp Harmony Blues (take 1)
TTITLE12=Army Camp Harmony Blues (take 2)
TTITLE13=Explaining the Blues (take 1)
TTITLE14=Explaining the Blues (take 2)
TTITLE15=Louisiana Hoo-Doo Blues
TTITLE16=Goodbye, Daddy Blues
TTITLE17=Stormy Sea Blues
TTITLE18=Rough and Tumble Blues
TTITLE19=Night Time Blues (take 1)
TTITLE20=Night Time Blues (take 2)
TTITLE21=Levee Camp Moan
TTITLE22=Four Day Honorary Scat (take 1)
TTITLE23=Four Day Honorary Scat (take 2)
TTITLE24=Memphis Bound Blues
EXTD=CD 2/5 - JSP 7793
EXTT0=
EXTT1=
EXTT2=
EXTT3=
EXTT4=
EXTT5=
EXTT6=
EXTT7=
EXTT8=
EXTT9=
EXTT10=
EXTT11=
EXTT12=
EXTT13=
EXTT14=
EXTT15=
EXTT16=
EXTT17=
EXTT18=
EXTT19=
EXTT20=
EXTT21=
EXTT22=
EXTT23=
EXTT24=
PLAYORDER=
